<?xml version="1.0" encoding="utf-8"?>
<!-- Generator: Adobe Illustrator 17.0.0, SVG Export Plug-In . SVG Version: 6.00 Build 0)  -->
<!DOCTYPE svg PUBLIC "-//W3C//DTD SVG 1.1//EN" "http://www.w3.org/Graphics/SVG/1.1/DTD/svg11.dtd">
<svg version="1.1" id="Your_Icon" xmlns="http://www.w3.org/2000/svg" xmlns:xlink="http://www.w3.org/1999/xlink" x="0px" y="0px"
	 width="100px" height="100px" viewBox="0 0 100 100" enable-background="new 0 0 100 100" xml:space="preserve">
<polygon fill="#D4DDCA" stroke="#414C42" stroke-width="0.5891" points="51.449,29.713 51.449,29.713 51.449,29.712 "/>
<path fill="#D4DDCA" stroke="#414C42" stroke-width="0.5891" d="M62.624,25.507c-3.722,0-7.533,0.503-11.22,0.99
	c-3.739,0.494-7.606,1.005-11.436,1.005c-2.388,0-4.57-0.196-6.637-0.598v15.847c2.055,0.424,4.233,0.631,6.637,0.631
	c3.439,0,6.954-0.43,10.377-0.88c0.281-0.037,0.563-0.074,0.843-0.11c1.638-0.216,3.303-0.432,4.976-0.609
	c0.088-0.009,0.175-0.021,0.263-0.031l0.004,0c0,0,4.693-0.604,8.981-0.259l0.004,0c0.635,0.045,1.255,0.107,1.867,0.183
	c0.042,0.005,0.086,0.009,0.127,0.014c0.627,0.083,1.245,0.178,1.851,0.295v-5.461V26.138
	C67.207,25.714,65.029,25.507,62.624,25.507z M40.622,35.445c-0.161,0.797-0.857,1.329-1.554,1.189
	c-0.698-0.141-1.133-0.901-0.973-1.698c0.161-0.797,0.857-1.329,1.554-1.189C40.348,33.887,40.783,34.648,40.622,35.445z
	 M55.951,37.897c-2.084,2.995-5.906,3.939-8.535,2.109c-2.63-1.83-3.072-5.742-0.988-8.736s5.906-3.939,8.535-2.109
	C57.593,30.991,58.035,34.902,55.951,37.897z M63.768,34.205c-0.161,0.797-0.857,1.329-1.554,1.189
	c-0.698-0.141-1.133-0.901-0.973-1.698c0.161-0.797,0.857-1.329,1.554-1.189C63.493,32.647,63.928,33.407,63.768,34.205z"/>
<text transform="matrix(1 0 0 1 48.5882 37.9188)" fill="#414C42" font-family="'Lato-BoldItalic'" font-size="12.7202">s</text>
<line fill="none" stroke="#414C42" stroke-width="0.5891" x1="52.299" y1="30.455" x2="50.308" y2="39.146"/>
</svg>
