<?xml version="1.0" encoding="utf-8"?>
<!-- Generator: Adobe Illustrator 17.0.0, SVG Export Plug-In . SVG Version: 6.00 Build 0)  -->
<!DOCTYPE svg PUBLIC "-//W3C//DTD SVG 1.1//EN" "http://www.w3.org/Graphics/SVG/1.1/DTD/svg11.dtd">
<svg version="1.1" id="Your_Icon" xmlns="http://www.w3.org/2000/svg" xmlns:xlink="http://www.w3.org/1999/xlink" x="0px" y="0px"
	 width="100px" height="100px" viewBox="0 0 100 100" enable-background="new 0 0 100 100" xml:space="preserve">
<path fill="#D4DDCA" stroke="#414C42" d="M83.513,17.845c-4.016-0.929-8.264-1.381-12.987-1.381c-6.502,0-13.066,0.867-19.413,1.705
	c-6.257,0.826-12.727,1.681-19.045,1.681c-4.507,0-8.548-0.428-12.353-1.309l-1.722-0.399v32.65l1.089,0.252
	c4.016,0.93,8.264,1.381,12.987,1.381c4.403,0,8.796-0.395,13.165-0.91c4.251-0.501,8.472-1.232,12.724-1.728
	c1.23-0.144,2.464-0.268,3.699-0.361c1.517-0.115,3.036-0.198,4.557-0.247c3.746-0.118,7.361-0.139,11.087,0.277
	c2.054,0.23,4.236,0.69,6.24,1.201l1.061,0.355v-1.498V18.096L83.513,17.845z M83.197,38.284c0,3.565,0,7.131,0,10.696
	c-2.741-0.633-5.481-1.007-8.221-1.195c-6.96-0.573-15.007,0.478-15.007,0.478c-1.435,0.15-2.868,0.322-4.303,0.502
	c-0.267,0.033-0.536,0.065-0.804,0.1c-0.752,0.096-1.504,0.194-2.256,0.293c-0.097,0.013-0.193,0.024-0.29,0.037
	c-0.937,0.123-1.874,0.247-2.81,0.37c-0.226,0.029-0.452,0.058-0.678,0.087c-0.01,0.001-0.021,0.003-0.032,0.004
	c-0.63,0.081-1.259,0.162-1.89,0.241c-0.325,0.041-0.65,0.08-0.976,0.119c-0.549,0.067-1.097,0.132-1.646,0.196
	c-0.362,0.041-0.725,0.081-1.087,0.12c-0.513,0.056-1.024,0.11-1.537,0.159c-0.381,0.037-0.764,0.073-1.146,0.107
	c-0.496,0.044-0.992,0.086-1.487,0.126c-0.39,0.03-0.779,0.058-1.17,0.084c-0.49,0.033-0.98,0.061-1.47,0.087
	c-0.391,0.021-0.784,0.04-1.177,0.056c-0.487,0.019-0.976,0.031-1.463,0.042c-0.394,0.009-0.787,0.017-1.181,0.02
	c-0.49,0.004-0.979-0.003-1.47-0.01c-0.39-0.005-0.778-0.009-1.167-0.021c-0.501-0.016-1.001-0.044-1.501-0.072
	c-0.378-0.021-0.756-0.037-1.133-0.064c-0.523-0.039-1.046-0.094-1.569-0.147c-0.355-0.036-0.71-0.065-1.064-0.108
	c-0.578-0.07-1.157-0.161-1.734-0.251c-0.3-0.046-0.6-0.082-0.899-0.135c-0.876-0.153-1.753-0.327-2.63-0.53
	c0-9.921,0-19.844,0-29.766c21.267,4.92,42.533-5.616,63.8-0.696C83.197,25.57,83.197,31.927,83.197,38.284z"/>
<g>
	<polygon fill="#D4DDCA" stroke="#414C42" points="51.555,26.413 51.555,26.413 51.556,26.411 	"/>
	<path fill="#D4DDCA" stroke="#414C42" d="M52.304,30.138c1.06,0.13,2.093,0.478,2.999,0.968l0.56-2.226
		c-1.041-0.468-2.189-0.769-3.465-0.927l0.174-1.415l-1.017-0.125l-0.179,1.453c-2.346-0.03-4.527,0.92-4.859,3.613
		c-0.337,2.733,1.977,3.736,3.839,4.664l-0.453,3.677c-0.156,0.02-0.286,0.004-0.416-0.012c-1.19-0.147-2.338-0.627-3.313-1.266
		l-0.587,2.443c1.452,0.518,2.162,0.805,3.806,1.008c0.065,0.008,0.152,0.019,0.241,0.01l-0.191,1.553l1.017,0.125l0.199-1.612
		c2.521,0.031,4.596-0.95,4.913-3.527c0.349-2.831-2.074-3.848-3.891-4.77l0.448-3.638C52.196,30.124,52.239,30.13,52.304,30.138z
		 M49.69,31.75c0.114-0.924,0.696-1.371,1.401-1.564l-0.378,3.067C50.039,32.832,49.612,32.38,49.69,31.75z M52.387,38.371
		c-0.09,0.727-0.69,1.152-1.438,1.339l0.37-3.008C52.013,37.127,52.477,37.643,52.387,38.371z"/>
	<path fill="#D4DDCA" stroke="#414C42" d="M70.525,19.274c-6.317,0-12.787,0.854-19.045,1.681
		c-6.347,0.838-12.91,1.705-19.413,1.705c-4.054,0-7.758-0.333-11.266-1.015v26.899c3.487,0.719,7.186,1.07,11.266,1.07
		c5.838,0,11.804-0.73,17.614-1.493c0.476-0.063,0.956-0.125,1.43-0.187c2.78-0.367,5.607-0.733,8.446-1.034
		c0.15-0.015,0.298-0.036,0.447-0.052l0.007-0.001c0,0,7.966-1.024,15.245-0.439l0.007,0.001c1.077,0.077,2.131,0.182,3.169,0.311
		c0.071,0.009,0.145,0.015,0.216,0.024c1.064,0.141,2.114,0.301,3.141,0.501v-9.27V20.344
		C78.304,19.625,74.607,19.274,70.525,19.274z M33.178,36.142c-0.273,1.353-1.454,2.256-2.639,2.018
		c-1.184-0.239-1.924-1.53-1.651-2.882c0.273-1.353,1.454-2.256,2.639-2.018C32.712,33.499,33.45,34.789,33.178,36.142z
		 M59.197,40.305c-3.538,5.084-10.024,6.687-14.488,3.58s-5.214-9.746-1.676-14.83s10.024-6.687,14.488-3.58
		S62.735,35.221,59.197,40.305z M72.466,34.037c-0.273,1.353-1.454,2.256-2.639,2.018c-1.184-0.239-1.924-1.53-1.651-2.882
		c0.273-1.353,1.454-2.256,2.639-2.018C71.999,31.393,72.739,32.684,72.466,34.037z"/>
</g>
<path fill="none" d="M24.083,37.667c0,0,3,2.167,9.917,1.667s11.674-3,17.296-4.083s13.454-2.833,18.121-3.083
	c4.667-0.25,10.167,2.25,10.167,2.25"/>
<text transform="matrix(0.9995 -0.0316 0.0316 0.9995 30.8711 39.4559)"><tspan x="0" y="0" font-family="'Lato-Bold'" font-size="6">B</tspan><tspan x="4.21" y="-0.049" font-family="'Lato-Bold'" font-size="6" rotate="-6.794">a</tspan><tspan x="7.554" y="-0.459" font-family="'Lato-Bold'" font-size="6" rotate="-11.924">n</tspan><tspan x="11.012" y="-1.208" font-family="'Lato-Bold'" font-size="6" rotate="-14.964">k</tspan><tspan x="14.203" y="-2.069" font-family="'Lato-Bold'" font-size="6" rotate="-15.288"> </tspan><tspan x="15.302" y="-2.387" font-family="'Lato-Bold'" font-size="6" rotate="-14.111">o</tspan><tspan x="18.561" y="-3.195" font-family="'Lato-Bold'" font-size="6" rotate="-10.751">f</tspan><tspan x="20.58" y="-3.564" font-family="'Lato-Bold'" font-size="6" rotate="-9.241"> </tspan><tspan x="21.742" y="-3.751" font-family="'Lato-Bold'" font-size="6" rotate="-9.533">B</tspan><tspan x="25.584" y="-4.398" font-family="'Lato-Bold'" font-size="6" rotate="-9.387">r</tspan><tspan x="28.008" y="-4.801" font-family="'Lato-Bold'" font-size="6" rotate="-8.864">a</tspan><tspan x="31.07" y="-5.284" font-family="'Lato-Bold'" font-size="6" rotate="-7.701">d</tspan><tspan x="34.443" y="-5.73" font-family="'Lato-Bold'" font-size="6" rotate="-6.106">l</tspan><tspan x="36.006" y="-5.924" font-family="'Lato-Bold'" font-size="6" rotate="-3.439">e</tspan><tspan x="39.053" y="-6.155" font-family="'Lato-Bold'" font-size="6" rotate="6.457">y</tspan></text>
</svg>
